<?xml version="1.0" encoding="UTF-8"?>
<!DOCTYPE svg PUBLIC "-//W3C//DTD SVG 1.1//EN" "http://www.w3.org/Graphics/SVG/1.1/DTD/svg11.dtd">
<!-- Creator: CorelDRAW 2019 (64-Bit) -->
<svg xmlns="http://www.w3.org/2000/svg" xml:space="preserve" width="71.6104mm" height="13.6817mm" version="1.1" style="shape-rendering:geometricPrecision; text-rendering:geometricPrecision; image-rendering:optimizeQuality; fill-rule:evenodd; clip-rule:evenodd"
viewBox="0 0 29253.33 5589.07"
 xmlns:xlink="http://www.w3.org/1999/xlink">
 <defs>
  <style type="text/css">
   <![CDATA[
    .fil2 {fill:#377312}
    .fil1 {fill:#569430}
    .fil0 {fill:#373435;fill-rule:nonzero}
   ]]>
  </style>
 </defs>
 <g id="Слой_x0020_1">
  <metadata id="CorelCorpID_0Corel-Layer"/>
  <path class="fil0" d="M18711.32 4835.08c887.93,0 1556.74,-733.02 1556.74,-1552.94 0,-676.36 -536.53,-1197.82 -1314.9,-1197.82 -887.97,0 -1556.74,733.07 -1556.74,1552.98 0,676.36 536.53,1197.78 1314.9,1197.78zm60.46 -778.37c-317.41,0 -487.43,-219.16 -487.43,-498.75 0,-332.52 238.04,-695.24 608.35,-695.24 317.41,0 487.43,219.12 487.43,498.75 0,332.48 -238.04,695.24 -608.35,695.24z"/>
  <path class="fil1" d="M3168.87 254.99l3202.49 682.82c0,0 394.33,110.58 351.03,567.42 -13.56,142.9 -272.72,590.25 -622.52,1137.57l-774.04 -40.24 692.66 166.87c-317.82,491.92 -696.1,1048.55 -1030.7,1532.51l-575.59 -386.65 513.33 476.69c-446.21,643.93 -799.77,1137.98 -799.77,1137.98 0,0 -278.89,221.21 -827.06,-192.32 -548.13,-413.53 -1529.12,-1336.8 -1529.12,-1336.8 0,0 1278.99,624.24 2303.24,-514.96 1024.29,-1139.16 274.19,-2677.88 -903.94,-3230.88z"/>
  <path class="fil2" d="M3429.33 3708.3l-456.47 15.89 -236.89 -668.03 -943 -459.24 -600.14 530.53 -59.6 735.97 -65.08 -65.93 45.55 -657.9 -525.63 -537.1 -398.46 5.39 -11.03 -45.1 381.18 -32.39 253.15 -784.58 -7.03 -770.36 48.45 -29.25 33.13 713.82 725.18 6.74 945.2 -687.68 -189.1 -448.58 -922.57 -82.4 -32.19 -2.82 979.88 -7.93 594.46 -287.38c0,0 250.82,11.36 556.47,203.4 305.64,191.96 265.41,268.72 265.41,268.72l-367.21 475.71 86.77 1218.82 634.25 452.95 -215.41 707.86 -519.29 230.89zm-653.65 -818.24l632.94 -557.9 -42.44 -1198.97 -728.98 -95.92 -935.52 704.1 104.78 748.47 925.35 442.7 43.87 -42.48z"/>
  <path class="fil2" d="M191.26 2241.15c0,0 125.57,1042.84 823.22,1483.08 697.65,440.21 1375.77,387.22 1944.37,208.62 568.6,-178.56 819.67,-518.15 819.67,-518.15l385.51 -645.15c0,0 268.59,-729.02 -67.4,-1519.4 -336.04,-790.38 -1108.28,-1100.19 -1108.28,-1100.19 0,0 -126.92,-76.72 -340.49,-102.09 -213.65,-25.41 -234.48,-26.35 -234.48,-26.35 0,0 112.83,-26.55 290.45,-20.67 1100.48,176.11 1917.33,1153.99 1865.65,2293.85 -55.6,1225.68 -1094.31,2174.32 -2319.99,2118.76 -1056.03,-47.88 -1906.54,-825.76 -2086,-1824.27 -7.52,-119.32 1.47,-236.24 27.78,-348.05z"/>
  <path class="fil2" d="M827.35 1041.65l618.85 -593.56 -191.63 10.46c0,0 -647.12,638.5 -664.03,663.95 -16.83,25.49 236.81,-80.84 236.81,-80.84z"/>
  <path class="fil1" d="M0.08 2216.8c0,1136.26 0,-3464.87 0,0z"/>
  <path class="fil0" d="M5868.2 4782.18l963.5 0 230.52 -355.16 925.72 0 45.34 355.16 940.83 0 -400.54 -2663.83 -876.57 0 -1828.8 2663.83zm1586.97 -982.42l411.86 -642.34 71.77 642.34 -483.63 0z"/>
  <polygon class="fil0" points="9038.37,4782.18 11127.88,4782.18 11331.93,4026.49 10126.55,4026.49 10632.9,2137.27 9748.73,2137.27 "/>
  <path class="fil0" d="M11131.64 4782.18l963.54 0 230.48 -355.16 925.72 0 45.34 355.16 940.83 0 -400.5 -2663.83 -876.61 0 -1828.8 2663.83zm1586.97 -982.42l411.86 -642.34 71.77 642.34 -483.63 0z"/>
  <path class="fil0" d="M14301.82 4782.18l1148.64 0c612.15,0 1069.35,-170.02 1386.76,-487.43 283.38,-283.38 434.49,-646.13 434.49,-1042.88 0,-321.17 -90.69,-578.08 -287.14,-774.57 -200.29,-200.25 -521.42,-340.04 -1035.36,-340.04l-937.03 0 -710.35 2644.92zm1091.98 -770.81l294.74 -1103.34 147.35 0c211.61,0 343.84,49.14 426.97,132.27 68.02,68.02 109.56,162.46 109.56,306.05 0,162.46 -79.33,340.08 -188.93,449.64 -135.99,136.03 -366.47,215.36 -634.78,215.36l-154.91 0z"/>
  <path class="fil0" d="M20124.51 4782.18l884.13 0 192.69 -717.91 374.07 0c838.83,0 1337.61,-442.09 1337.61,-1103.29 0,-207.85 -68.02,-392.98 -207.81,-532.82 -196.49,-196.45 -494.99,-290.9 -982.42,-290.9l-887.97 0 -710.31 2644.92zm1246.88 -1348.93l154.91 -589.43 166.26 0c98.25,0 204.05,22.67 264.51,83.13 41.55,41.55 64.22,98.25 64.22,154.91 0,200.29 -154.91,351.4 -491.23,351.4l-158.66 0z"/>
  <polygon class="fil0" points="22384.04,4782.18 23260.66,4782.18 23494.89,3913.13 22618.28,3913.13 "/>
  <polygon class="fil0" points="23506.25,4782.18 24390.38,4782.18 24518.86,4302.31 24889.17,3932.04 25206.54,4782.18 26147.41,4782.18 25595.76,3346.36 26801.1,2137.27 25724.2,2137.27 24843.82,3085.66 25100.77,2137.27 24216.6,2137.27 "/>
  <polygon class="fil0" points="26151.21,4782.18 28542.97,4782.18 28735.67,4056.72 27575.67,4056.72 29087.06,2756.93 29253.33,2137.27 26906.86,2137.27 26710.41,2862.73 27825.06,2862.73 26317.43,4162.52 "/>
  <path class="fil1" d="M3049.26 157.28l-581.84 269.29 156.29 454.42 750.1 33.66 303.15 -331.95c0,0 -242.94,-319.25 -627.71,-425.42z"/>
  <polygon class="fil1" points="632.98,2484.58 899.86,1722.43 1556.25,1717.61 1142.67,3006.32 "/>
  <polygon class="fil1" points="3458.01,2378.82 2808.85,2943.82 3027.65,3588.16 3462.83,3592.98 3958.1,2838.02 "/>
 </g>
</svg>
