<?xml version="1.0" encoding="UTF-8"?>
<!DOCTYPE svg PUBLIC "-//W3C//DTD SVG 1.1//EN" "http://www.w3.org/Graphics/SVG/1.1/DTD/svg11.dtd">
<!-- Creator: CorelDRAW 2018 (64-Bit Evaluation Version) -->
<svg xmlns="http://www.w3.org/2000/svg" xml:space="preserve" width="456px" height="457px" version="1.1" style="shape-rendering:geometricPrecision; text-rendering:geometricPrecision; image-rendering:optimizeQuality; fill-rule:evenodd; clip-rule:evenodd"
viewBox="0 0 10.12 10.14"
 xmlns:xlink="http://www.w3.org/1999/xlink">
 <defs>
  <style type="text/css">
   <![CDATA[
    .fil0 {fill:#201E1E}
   ]]>
  </style>
 </defs>
 <g id="Layer_x0020_1">
  <metadata id="CorelCorpID_0Corel-Layer"/>
  <g id="_2900682972352">
   <g>
    <path class="fil0" d="M9.99 8.72l-2.43 -2.51c-0.17,-0.18 -0.39,-0.25 -0.49,-0.16 -0.09,0.09 -0.31,0.02 -0.48,-0.16l-0.04 -0.04c1.09,-1.43 0.98,-3.48 -0.32,-4.78 -1.43,-1.43 -3.74,-1.43 -5.16,0 -1.43,1.42 -1.43,3.73 0,5.16 1.33,1.33 3.42,1.41 4.85,0.27l0.02 0.01c0.17,0.18 0.24,0.4 0.14,0.5 -0.09,0.09 -0.03,0.31 0.15,0.49l2.42 2.51c0.18,0.18 0.47,0.18 0.65,0.01l0.68 -0.66c0.18,-0.18 0.18,-0.46 0.01,-0.64zm-4.56 -3.29c-0.98,0.98 -2.58,0.98 -3.56,0 -0.98,-0.98 -0.98,-2.58 0,-3.56 0.98,-0.98 2.58,-0.98 3.56,0 0.98,0.98 0.98,2.58 0,3.56z"/>
   </g>
   <g>
   </g>
   <g>
   </g>
   <g>
   </g>
   <g>
   </g>
   <g>
   </g>
   <g>
   </g>
   <g>
   </g>
   <g>
   </g>
   <g>
   </g>
   <g>
   </g>
   <g>
   </g>
   <g>
   </g>
   <g>
   </g>
   <g>
   </g>
   <g>
   </g>
  </g>
 </g>
</svg>
